<svg width="333" height="354" viewBox="0 0 333 354" fill="none" xmlns="http://www.w3.org/2000/svg">
<path d="M196.753 60.4938C184.211 65.4 173.766 72.3975 165.263 81.518C156.744 90.662 150.237 101.622 145.773 114.501C141.286 127.395 139.03 141.406 139.03 156.597C139.054 188.919 148.139 214.016 166.175 232.572C184.195 251.064 209.351 260.413 242.444 260.436C256.551 260.444 268.983 258.62 279.742 255.074C299.421 248.139 321.567 228.507 325.339 209.991C327.799 197.883 320.388 195.256 316.388 194.706C315.618 194.627 314.832 194.572 313.999 194.572C309.441 194.572 305.825 196.043 303.523 198.142C300.757 200.682 292.709 208.237 288.568 211.862C284.355 215.542 279.766 218.985 274.791 222.201C269.699 225.488 264.394 227.925 258.916 229.482C253.423 231.046 247.411 231.801 240.912 231.801C231.08 231.809 221.941 229.348 213.744 224.458C205.469 219.551 198.851 212.208 193.987 202.694C189.444 193.888 187.008 183.84 186.545 172.715C186.419 168.996 189.248 166.779 192.533 166.779H291.931C305.338 166.786 315.5 164.829 322.384 161.267C328.506 158.098 331.987 151.085 332.042 138.356C332.042 124.675 328.553 111.262 321.472 97.9506C314.447 84.7809 303.939 74.0565 289.715 65.6594C275.608 57.3409 258.649 53.1345 238.609 53.1266C223.206 53.1266 209.28 55.6033 196.753 60.4938M272.19 97.7854C280.866 107.016 285.746 120.461 287.287 137.727C287.499 140.612 284.457 143.136 281.353 143.136H192.714C189.492 143.113 186.277 140.518 186.78 137.342C188.824 120.477 193.94 107.228 202.506 97.9977C211.41 88.3583 223.143 83.4522 236.888 83.4836C251.207 83.4522 263.254 88.2483 272.19 97.7854Z" fill="url(#paint0_radial_110_323)"/>
<path d="M0 156.801C0 243.406 70.1555 313.594 156.72 313.594C243.277 313.594 313.441 243.406 313.441 156.801C313.441 70.196 243.277 -6.92578e-05 156.72 -6.92578e-05C70.1555 -6.92578e-05 0 70.196 0 156.801" fill="url(#paint1_linear_110_323)"/>
<path d="M11.6625 142.051C9.34418 164.899 12.4485 187.079 19.9379 207.286C47.6795 142.861 117.458 141.343 170.89 160.174C235.12 173.414 308.458 170.387 297.99 122.497C286.006 67.1138 236.825 18.3193 171.456 11.6756C166.465 11.1645 161.514 10.9129 156.602 10.9129C82.7769 10.9129 19.2777 67.0194 11.6625 142.051" fill="url(#paint2_linear_110_323)"/>
<path d="M183.225 88.3992C174.714 97.5314 168.207 108.492 163.731 121.378C159.256 134.265 157 148.276 157 163.466C157.024 195.789 166.108 220.886 184.144 239.441C202.165 257.934 227.321 267.282 260.414 267.306C274.018 267.314 286.026 265.607 296.509 262.313C310.569 244.953 320.997 224.534 326.64 202.212C327.958 197 333.261 169.133 331.222 171C329.182 172.867 314.078 167.802 309.901 171.454C305.724 175.106 297.735 225.855 292.702 229.106C287.668 232.357 282.364 234.794 276.878 236.355C271.393 237.916 265.381 238.671 257.215 238.675C249.05 238.678 239.91 236.218 231.674 231.319C223.438 226.421 216.821 219.077 212.118 209.918C207.414 200.758 204.978 190.71 204.514 179.584C204.389 175.865 203.108 144.211 204.75 144.211C204.75 144.211 209.771 110.806 213.841 107.306C217.911 103.806 204.75 78.3057 258.556 73.1268L308.667 127.401C317.045 127.409 304.062 173.737 309.901 172.306C310.027 169.719 331.222 173.61 331.222 171C331.222 134.998 319.284 94.5201 298.899 68.055C286.678 62.7086 272.619 60.0039 256.897 60C241.176 59.996 227.25 62.4727 214.723 67.3632C202.18 72.2693 191.736 79.2669 183.225 88.3992Z" fill="url(#paint3_radial_110_323)"/>
<path d="M157 147H207V347C187.455 355.3 176.547 355.425 157 347V147Z" fill="#E1EBEE"/>
<path d="M26.2249 88.3992C17.7138 97.5314 11.2067 108.492 6.73111 121.378C2.25553 134.265 0 148.276 0 163.466C0.0235764 195.789 9.10843 220.886 27.1444 239.441C45.1646 257.934 70.3205 267.282 103.414 267.306C117.018 267.314 129.026 265.607 139.509 262.313C153.569 244.953 163.997 224.534 169.64 202.212C170.958 197 176.261 169.133 174.222 171C172.182 172.867 157.078 167.802 152.901 171.454C148.724 175.106 140.735 225.855 135.702 229.106C130.668 232.357 125.364 234.794 119.878 236.355C114.393 237.916 108.381 238.671 100.215 238.675C92.0501 238.678 82.9104 236.218 74.6743 231.319C66.4383 226.421 59.8212 219.077 55.1177 209.918C50.4143 200.758 47.978 190.71 47.5144 179.584C47.3886 175.865 46.1076 144.211 47.7501 144.211C47.7501 144.211 52.7712 110.806 56.8409 107.306C60.9106 103.806 47.7501 78.3057 101.556 73.1268L151.667 127.401C160.045 127.409 147.062 173.737 152.901 172.306C153.027 169.719 174.222 173.61 174.222 171C174.222 134.998 162.284 94.5201 141.899 68.055C129.678 62.7086 115.619 60.0039 99.8972 60C84.1757 59.996 70.2498 62.4727 57.7229 67.3632C45.1803 72.2693 34.736 79.2669 26.2249 88.3992Z" fill="url(#paint4_radial_110_323)"/>
<path d="M0 147H50V347C30.4551 355.3 19.5473 355.425 0 347V147Z" fill="#E1EBEE"/>
<defs>
<radialGradient id="paint0_radial_110_323" cx="0" cy="0" r="1" gradientUnits="userSpaceOnUse" gradientTransform="translate(201.197 59.8908) scale(366.862 367.034)">
<stop stop-color="#E65D1B"/>
<stop offset="0.0472274" stop-color="#E65D1B"/>
<stop offset="0.350006" stop-color="#ED1C24"/>
<stop offset="1" stop-color="#A61217"/>
</radialGradient>
<linearGradient id="paint1_linear_110_323" x1="156.719" y1="0.0075276" x2="156.719" y2="313.594" gradientUnits="userSpaceOnUse">
<stop stop-color="#65CDEB"/>
<stop offset="0.0548619" stop-color="#65CDEB"/>
<stop offset="0.406586" stop-color="#164789"/>
<stop offset="1" stop-color="#06172F"/>
</linearGradient>
<linearGradient id="paint2_linear_110_323" x1="168.137" y1="11.3326" x2="146.902" y2="220.193" gradientUnits="userSpaceOnUse">
<stop stop-color="#99DEF9"/>
<stop offset="1" stop-color="#103568"/>
</linearGradient>
<radialGradient id="paint3_radial_110_323" cx="0" cy="0" r="1" gradientUnits="userSpaceOnUse" gradientTransform="translate(228.421 65.4974) scale(210.384 210.482)">
<stop stop-color="white"/>
<stop offset="0.252747" stop-color="white"/>
<stop offset="0.457171" stop-color="white"/>
<stop offset="1" stop-color="#CEDDE3"/>
</radialGradient>
<radialGradient id="paint4_radial_110_323" cx="0" cy="0" r="1" gradientUnits="userSpaceOnUse" gradientTransform="translate(71.4211 65.4974) scale(210.384 210.482)">
<stop stop-color="white"/>
<stop offset="0.252747" stop-color="white"/>
<stop offset="0.457171" stop-color="white"/>
<stop offset="1" stop-color="#CEDDE3"/>
</radialGradient>
</defs>
</svg>
